<svg width="327" height="100" fill="none" xmlns="http://www.w3.org/2000/svg"><rect width="61" height="20" rx="10" fill="url(#paint0_linear)"/><rect x="94" y="80" width="233" height="20" rx="10" fill="#FF572B"/><path d="M139.2 67.8a41.4 41.4 0 01-9.3 5.6 26 26 0 01-10 1.8c-3.4 0-6.4-.7-9-2a14.9 14.9 0 01-5.9-5.4c-1.3-2.3-2-4.8-2-7.5 0-3.6 1.1-6.7 3.4-9.2 2.3-2.6 5.4-4.3 9.4-5.1a351.2 351.2 0 0114.8-3.2l7.7-2c-.2-3.5-.9-6-2.1-7.7-1.3-1.6-3.8-2.5-7.7-2.5-3.4 0-5.9.5-7.6 1.4-1.7 1-3.1 2.4-4.4 4.2-1.1 2-2 3.2-2.5 3.8-.5.5-1.6.8-3.2.8-1.5 0-2.8-.4-3.9-1.4-1-1-1.6-2.2-1.6-3.6 0-2.4.9-4.6 2.5-6.8s4.2-4 7.7-5.4c3.5-1.4 7.8-2.1 13-2.1 5.8 0 10.3.6 13.7 2 3.3 1.4 5.6 3.5 7 6.5 1.4 3 2 7 2 11.8a544.7 544.7 0 010 15c0 2.6.4 5.2 1.2 7.9.8 2.6 1.2 4.4 1.2 5.1 0 1.4-.6 2.6-2 3.8a6.4 6.4 0 01-4.2 1.6c-1.4 0-2.7-.6-4-1.9a29.1 29.1 0 01-4.2-5.5zm-.9-19.1c-2 .7-4.8 1.4-8.5 2.2a157 157 0 00-7.6 1.8 10 10 0 00-4 2.2c-1.3 1-2 2.5-2 4.5s.8 3.7 2.3 5c1.5 1.5 3.5 2.2 6 2.2s5-.6 7.1-1.7c2.3-1.2 3.9-2.7 5-4.5 1.1-2 1.7-5.3 1.7-9.8v-2zm29.8-19.8v1.6c2.5-3 5-5.3 7.7-6.7A21 21 0 01204.2 34c2 4 3 8.8 3 14.3 0 4-.6 7.8-1.7 11.2a25.1 25.1 0 01-4.7 8.6 21 21 0 01-25.4 4.8c-2.6-1.5-5-3.7-7.3-6.6V86c0 5.8-2.1 8.7-6.3 8.7-2.5 0-4.2-.8-5-2.3a14 14 0 01-1.2-6.5V29c0-2.5.6-4.3 1.7-5.6a5.7 5.7 0 014.5-1.8c1.8 0 3.3.6 4.5 1.9 1.2 1.2 1.8 3 1.8 5.4zM194 48.1c0-3.4-.6-6.4-1.6-8.9-1.1-2.5-2.6-4.4-4.5-5.8-1.9-1.3-4-2-6.2-2-3.7 0-6.7 1.4-9.3 4.3-2.4 2.9-3.7 7.1-3.7 12.7 0 5.2 1.3 9.3 3.7 12.3 2.5 2.9 5.6 4.3 9.3 4.3 2.2 0 4.2-.6 6-1.9 2-1.3 3.4-3.2 4.6-5.7 1-2.6 1.7-5.7 1.7-9.3zM222.5 29v1.6c2.5-3 5.1-5.3 7.8-6.7A21 21 0 01258.7 34c2 4 3 8.8 3 14.3 0 4-.6 7.8-1.8 11.2a25.1 25.1 0 01-4.7 8.6 21 21 0 01-25.4 4.8c-2.5-1.5-5-3.7-7.3-6.6V86c0 5.8-2 8.7-6.3 8.7-2.5 0-4.1-.8-5-2.3a14 14 0 01-1.1-6.5V29c0-2.5.5-4.3 1.6-5.6a5.7 5.7 0 014.5-1.8c1.9 0 3.4.6 4.6 1.9 1.2 1.2 1.7 3 1.7 5.4zm26 19.2c0-3.4-.6-6.4-1.7-8.9-1-2.5-2.5-4.4-4.4-5.8-1.9-1.3-4-2-6.3-2-3.6 0-6.7 1.4-9.2 4.3-2.5 2.9-3.7 7.1-3.7 12.7 0 5.2 1.2 9.3 3.7 12.3 2.5 2.9 5.6 4.3 9.2 4.3 2.2 0 4.3-.6 6.1-1.9 1.9-1.3 3.4-3.2 4.5-5.7 1.1-2.6 1.7-5.7 1.7-9.3zM275.5 77l1.3-3L260.6 33c-1-2.3-1.5-4-1.5-5.1a6 6 0 01.9-3.2 6.5 6.5 0 015.5-3.1c2 0 3.4.6 4.3 1.8 1 1.2 1.9 2.9 2.6 5.2L283.6 61l10.6-30.2c.8-2.4 1.6-4.3 2.2-5.7a6.9 6.9 0 012.2-2.8c.7-.5 1.8-.7 3.2-.7 1 0 2 .2 2.8.8a5.7 5.7 0 012.9 5 65.7 65.7 0 01-1.6 6l-17.3 45c-1.4 4-2.9 7.1-4.3 9.4-1.4 2.2-3.3 4-5.7 5.1a20.3 20.3 0 01-9.4 1.9 23 23 0 01-8.7-1.3c-2-.8-2.9-2.3-2.9-4.6 0-1.5.5-2.7 1.4-3.5.9-.8 2.3-1.2 4-1.2.8 0 1.5.1 2.2.3l2.1.3c1.5 0 2.7-.2 3.6-.7a6 6 0 002.3-2.4c.7-1 1.5-2.7 2.4-4.8z" fill="url(#paint1_linear)"/><path d="M12 10h76.7a5 5 0 013.2 8.9L14 81.1a5 5 0 003.2 8.9H103" stroke="url(#paint2_linear)" stroke-width="20"/><mask id="a" mask-type="alpha" maskUnits="userSpaceOnUse" x="102" y="21" width="206" height="74"><path d="M139.2 67.8a41.4 41.4 0 01-9.3 5.6 26 26 0 01-10 1.8c-3.4 0-6.4-.7-9-2a14.9 14.9 0 01-5.9-5.4c-1.3-2.3-2-4.8-2-7.5 0-3.6 1.1-6.7 3.4-9.2 2.3-2.6 5.4-4.3 9.4-5.1a351.2 351.2 0 0114.8-3.2l7.7-2c-.2-3.5-.9-6-2.1-7.7-1.3-1.6-3.8-2.5-7.7-2.5-3.4 0-5.9.5-7.6 1.4-1.7 1-3.1 2.4-4.4 4.2-1.1 2-2 3.2-2.5 3.8-.5.5-1.6.8-3.2.8-1.5 0-2.8-.4-3.9-1.4-1-1-1.6-2.2-1.6-3.6 0-2.4.9-4.6 2.5-6.8s4.2-4 7.7-5.4c3.5-1.4 7.8-2.1 13-2.1 5.8 0 10.3.6 13.7 2 3.3 1.4 5.6 3.5 7 6.5 1.4 3 2 7 2 11.8a544.7 544.7 0 010 15c0 2.6.4 5.2 1.2 7.9.8 2.6 1.2 4.4 1.2 5.1 0 1.4-.6 2.6-2 3.8a6.4 6.4 0 01-4.2 1.6c-1.4 0-2.7-.6-4-1.9a29.1 29.1 0 01-4.2-5.5zm-.9-19.1c-2 .7-4.8 1.4-8.5 2.2a157 157 0 00-7.6 1.8 10 10 0 00-4 2.2c-1.3 1-2 2.5-2 4.5s.8 3.7 2.3 5c1.5 1.5 3.5 2.2 6 2.2s5-.6 7.1-1.7c2.3-1.2 3.9-2.7 5-4.5 1.1-2 1.7-5.3 1.7-9.8v-2zm29.8-19.8v1.6c2.5-3 5-5.3 7.7-6.7A21 21 0 01204.2 34c2 4 3 8.8 3 14.3 0 4-.6 7.8-1.7 11.2a25.1 25.1 0 01-4.7 8.6 21 21 0 01-25.4 4.8c-2.6-1.5-5-3.7-7.3-6.6V86c0 5.8-2.1 8.7-6.3 8.7-2.5 0-4.2-.8-5-2.3a14 14 0 01-1.2-6.5V29c0-2.5.6-4.3 1.7-5.6a5.7 5.7 0 014.5-1.8c1.8 0 3.3.6 4.5 1.9 1.2 1.2 1.8 3 1.8 5.4zM194 48.1c0-3.4-.6-6.4-1.6-8.9-1.1-2.5-2.6-4.4-4.5-5.8-1.9-1.3-4-2-6.2-2-3.7 0-6.7 1.4-9.3 4.3-2.4 2.9-3.7 7.1-3.7 12.7 0 5.2 1.3 9.3 3.7 12.3 2.5 2.9 5.6 4.3 9.3 4.3 2.2 0 4.2-.6 6-1.9 2-1.3 3.4-3.2 4.6-5.7 1-2.6 1.7-5.7 1.7-9.3zM222.5 29v1.6c2.5-3 5.1-5.3 7.8-6.7A21 21 0 01258.7 34c2 4 3 8.8 3 14.3 0 4-.6 7.8-1.8 11.2a25.1 25.1 0 01-4.7 8.6 21 21 0 01-25.4 4.8c-2.5-1.5-5-3.7-7.3-6.6V86c0 5.8-2 8.7-6.3 8.7-2.5 0-4.1-.8-5-2.3a14 14 0 01-1.1-6.5V29c0-2.5.5-4.3 1.6-5.6a5.7 5.7 0 014.5-1.8c1.9 0 3.4.6 4.6 1.9 1.2 1.2 1.7 3 1.7 5.4zm26 19.2c0-3.4-.6-6.4-1.7-8.9-1-2.5-2.5-4.4-4.4-5.8-1.9-1.3-4-2-6.3-2-3.6 0-6.7 1.4-9.2 4.3-2.5 2.9-3.7 7.1-3.7 12.7 0 5.2 1.2 9.3 3.7 12.3 2.5 2.9 5.6 4.3 9.2 4.3 2.2 0 4.3-.6 6.1-1.9 1.9-1.3 3.4-3.2 4.5-5.7 1.1-2.6 1.7-5.7 1.7-9.3zM275.5 77l1.3-3L260.6 33c-1-2.3-1.5-4-1.5-5.1a6 6 0 01.9-3.2 6.5 6.5 0 015.5-3.1c2 0 3.4.6 4.3 1.8 1 1.2 1.9 2.9 2.6 5.2L283.6 61l10.6-30.2c.8-2.4 1.6-4.3 2.2-5.7a6.9 6.9 0 012.2-2.8c.7-.5 1.8-.7 3.2-.7 1 0 2 .2 2.8.8a5.7 5.7 0 012.9 5 65.7 65.7 0 01-1.6 6l-17.3 45c-1.4 4-2.9 7.1-4.3 9.4-1.4 2.2-3.3 4-5.7 5.1a20.3 20.3 0 01-9.4 1.9 23 23 0 01-8.7-1.3c-2-.8-2.9-2.3-2.9-4.6 0-1.5.5-2.7 1.4-3.5.9-.8 2.3-1.2 4-1.2.8 0 1.5.1 2.2.3l2.1.3c1.5 0 2.7-.2 3.6-.7a6 6 0 002.3-2.4c.7-1 1.5-2.7 2.4-4.8z" fill="#AF0471"/></mask><g mask="url(#a)"><path fill="#AF0471" d="M93 80h223v20H93z"/></g><defs><linearGradient id="paint0_linear" x1="30.5" y1="0" x2="30.5" y2="20" gradientUnits="userSpaceOnUse"><stop stop-color="#AF0371"/><stop offset="1" stop-color="#B80D69"/></linearGradient><linearGradient id="paint1_linear" x1="211.5" y1="-20" x2="211.5" y2="53" gradientUnits="userSpaceOnUse"><stop stop-color="#ACACAC"/><stop offset="1"/></linearGradient><linearGradient id="paint2_linear" x1="53" y1="10" x2="53" y2="90" gradientUnits="userSpaceOnUse"><stop stop-color="#AF0471"/><stop offset="1" stop-color="#FF572B"/></linearGradient></defs></svg>